<?xml version="1.0" encoding="UTF-8"?>
<svg xmlns="http://www.w3.org/2000/svg" viewBox="0 0 1200 1200">
  <g fill="#040001">
    <rect x="120" y="1090" width="960" height="14"></rect>
    <rect x="200" y="1060" width="800" height="10"></rect>
    <rect x="240" y="1030" width="720" height="10"></rect>
    <rect x="240" y="320" width="18" height="710"></rect>
    <rect x="942" y="320" width="18" height="710"></rect>
    <rect x="240" y="320" width="720" height="18"></rect>
    <rect x="258" y="700" width="684" height="10"></rect>
    <rect x="486" y="710" width="14" height="320"></rect>
    <rect x="700" y="710" width="14" height="320"></rect>
    <path fill-rule="evenodd" d="M 280 1030 V 870 Q 280 760 380 760 Q 480 760 480 870 V 1030 Z M 300 1030 V 870 Q 300 780 380 780 Q 460 780 460 870 V 1030 Z"></path>
    <path fill-rule="evenodd" d="M 506 1030 V 830 Q 506 700 600 700 Q 694 700 694 830 V 1030 Z M 526 1030 V 830 Q 526 720 600 720 Q 674 720 674 830 V 1030 Z"></path>
    <path fill-rule="evenodd" d="M 720 1030 V 870 Q 720 760 820 760 Q 920 760 920 870 V 1030 Z M 740 1030 V 870 Q 740 780 820 780 Q 900 780 900 870 V 1030 Z"></path>
    <circle cx="600" cy="540" r="78" fill="none" stroke="#040001" stroke-width="14"></circle>
    <circle cx="600" cy="540" r="46" fill="none" stroke="#040001" stroke-width="10"></circle>
    <rect x="594" y="462" width="12" height="156"></rect>
    <rect x="522" y="534" width="156" height="12"></rect>
    <g transform="rotate(45 600 540)"><rect x="594" y="462" width="12" height="156"></rect></g>
    <g transform="rotate(-45 600 540)"><rect x="594" y="462" width="12" height="156"></rect></g>
    <rect x="216" y="280" width="30" height="50"></rect>
    <rect x="954" y="280" width="30" height="50"></rect>
    <rect x="226" y="240" width="10" height="50"></rect>
    <rect x="964" y="240" width="10" height="50"></rect>
    <rect x="270" y="380" width="660" height="3" opacity="0.35"></rect>
    <rect x="270" y="410" width="660" height="3" opacity="0.35"></rect>
    <rect x="270" y="440" width="660" height="3" opacity="0.35"></rect>
    <rect x="270" y="630" width="660" height="3" opacity="0.35"></rect>
    <rect x="270" y="660" width="660" height="3" opacity="0.35"></rect>
    <rect x="270" y="690" width="660" height="3" opacity="0.35"></rect>
  </g>
</svg>