<?xml version="1.0" encoding="UTF-8"?>
<svg xmlns="http://www.w3.org/2000/svg" viewBox="0 0 1200 1200" role="img" aria-label="Chiesa di Cristo di Bologna">
  <g fill="none" stroke="#040001" stroke-width="26" stroke-linecap="square" stroke-linejoin="miter">
    <path d="M90 1090H1110"/>
    <path d="M180 1058H1020" stroke-width="18"/>
    <path d="M225 1028H975" stroke-width="14"/>
    <path d="M140 1028V706H350V1028"/>
    <path d="M1060 1028V706H850V1028"/>
    <path d="M350 1028V484L600 286L850 484V1028"/>
    <path d="M142 830H1058" stroke-width="24"/>
    <path d="M150 866H1050M150 902H1050M150 938H1050M150 974H1050M150 1010H1050" stroke-width="10" opacity=".72"/>
    <path d="M545 1028V920C545 875 569 852 600 852C631 852 655 875 655 920V1028"/>
    <path d="M410 1028V936C410 905 427 890 450 890C473 890 490 905 490 936V1028" stroke-width="20"/>
    <path d="M710 1028V936C710 905 727 890 750 890C773 890 790 905 790 936V1028" stroke-width="20"/>
    <path d="M562 790V532C562 481 579 456 600 456C621 456 638 481 638 532V790"/>
    <path d="M600 550V790" stroke-width="10"/>
    <path d="M600 218V284M578 242H622" stroke-width="14"/>
  </g>
</svg>
