<?xml version="1.0" encoding="UTF-8"?>
<svg width="1200pt" height="1200pt" version="1.1" viewBox="0 0 1200 1200" xmlns="http://www.w3.org/2000/svg">
 <g fill="#040001">
  <path d="m528.89 623.08h8.5078v105.91h-8.5078z"/>
  <path d="m472.5 911.3v-91.512c0-7.5664-4.0352-14.555-10.59-18.34-6.5508-3.7812-14.621-3.7812-21.176 0-6.5508 3.7852-10.586 10.773-10.586 18.34v91.512zm-33.844-91.512c0-6.9961 5.6719-12.668 12.668-12.668 6.9961 0 12.668 5.6719 12.668 12.668v83.004h-25.336z"/>
  <path d="m312.04 798.61c-5.6172 0.003907-11.004 2.2344-14.98 6.2031-3.9727 3.9727-6.2109 9.3555-6.2188 14.973v91.512h42.375v-91.512c-0.003907-5.6133-2.2383-10.996-6.207-14.965-3.9727-3.9727-9.3555-6.2031-14.969-6.2109zm12.668 104.18h-25.359v-83.004c0-7.0039 5.6758-12.68 12.68-12.68 7.0039 0 12.68 5.6758 12.68 12.68z"/>
  <path d="m472.5 641.64c0-7.5664-4.0352-14.555-10.59-18.34-6.5508-3.7812-14.621-3.7812-21.176 0-6.5508 3.7852-10.586 10.773-10.586 18.34v91.535h42.352zm-8.5078 83.027h-25.336v-83.027c0-6.9961 5.6719-12.668 12.668-12.668 6.9961 0 12.668 5.6719 12.668 12.668z"/>
  <path d="m756.14 623.08h8.5078v105.91h-8.5078z"/>
  <path d="m842.19 798.61c-5.6094 0.007813-10.988 2.2422-14.957 6.2148-3.9648 3.9688-6.1914 9.3516-6.1953 14.961v91.512h42.352v-91.512c-0.007813-5.6172-2.2461-11-6.2188-14.973-3.9766-3.9688-9.3633-6.1992-14.98-6.2031zm12.691 104.18h-25.336v-83.004c0-6.9961 5.6719-12.668 12.668-12.668s12.668 5.6719 12.668 12.668z"/>
  <path d="m981.5 798.61c-5.6133 0.007813-10.996 2.2383-14.969 6.2109-3.9688 3.9688-6.1992 9.3516-6.207 14.965v91.512h42.375v-91.512c-0.007813-5.6172-2.2461-11-6.2188-14.973-3.9766-3.9688-9.3633-6.1992-14.98-6.2031zm12.691 104.18h-25.359v-83.004c0-7.0039 5.6758-12.68 12.68-12.68s12.68 5.6758 12.68 12.68z"/>
  <path d="m863.39 641.64c0-7.5664-4.0352-14.555-10.586-18.34-6.5547-3.7812-14.625-3.7812-21.18 0-6.5508 3.7852-10.586 10.773-10.586 18.34v91.535h42.352zm-8.5078 83.027h-25.336v-83.027c0-6.9961 5.6719-12.668 12.668-12.668s12.668 5.6719 12.668 12.668z"/>
  <path d="m1099.8 692.15v-111.43h-15.68v-134.52h-8.5078v134.52h-23.484v-134.52h-8.5078v26.652c-31.703-56.887-75.18-106.35-127.52-145.09v-90.105h-8.5078v83.887c-34.129-24.168-71.457-43.465-110.91-57.34v-68.746h-15.867v-134.52h-8.5078v134.52h-23.484v-134.52h-8.5078v134.52h-16.125v50c-13.227-2.2773-26.59-4.0742-39.848-5.1523l-0.011719 0.15625-37.516-47.621-37.418 47.496c-13.297 1.0859-26.691 2.8438-39.961 5.125l-0.003906-50.004h-16.125v-134.52h-8.5078v134.52h-23.484v-134.52h-8.5078v134.52h-15.867v68.738c-39.449 13.871-76.777 33.172-110.91 57.34v-83.879h-8.5078v90.102c-52.348 38.75-95.82 88.219-127.52 145.11v-26.664h-8.5078v134.52h-23.484v-134.52h-8.5078v134.52h-15.68v111.43h-0.39844c0.0625 120.21 47.855 235.47 132.88 320.44 85.02 84.977 200.3 132.71 320.51 132.71s235.49-47.738 320.51-132.71c85.02-84.973 132.81-200.23 132.88-320.44zm-8.332 8.7891c-0.85156 45.516-8.7227 90.629-23.332 133.74v-31.016h-8.5078v54.012c-6.7227 16.758-14.465 33.094-23.18 48.906v-317.36h23.18v138.2h8.5078v-138.2h23.156v111.71zm-236.54 384.25c-8.2852 4.4062-16.75 8.5117-25.336 12.398v-60.121c0-6.9961 5.6719-12.668 12.668-12.668s12.668 5.6719 12.668 12.668zm-12.691-68.887c-5.6094 0.007813-10.988 2.2422-14.953 6.207-3.9648 3.9688-6.1953 9.3477-6.1992 14.957v63.973c-8.0117 3.4258-16.145 6.6055-24.398 9.5469v-98.078l47.098-31.996 44.988 30.562v53.711c-8.2656 5.3789-16.711 10.492-25.336 15.34v-43.059c-0.011719-5.6133-2.25-10.996-6.2227-14.965-3.9766-3.9688-9.3594-6.1953-14.977-6.1992zm-240.32 118.46c-10.965-1.1055-21.77-2.7266-32.484-4.6133v-302.09c21.672-18.277 49.141-28.254 77.492-28.141 28.352 0.11719 55.742 10.309 77.266 28.762v301.46c-10.961 1.9297-22.02 3.5625-33.234 4.6719v-214.91c-0.074218-15.855-8.5742-30.477-22.32-38.383-13.742-7.9062-30.656-7.9062-44.398 0-13.746 7.9062-22.246 22.527-22.32 38.383zm-137.88-37.18c-8.5859-3.8867-17.051-7.9922-25.336-12.398v-47.723c0-6.9961 5.6719-12.668 12.668-12.668 6.9961 0 12.668 5.6719 12.668 12.668zm-12.645-81.285c-5.6172 0.003907-11.004 2.2305-14.977 6.1992s-6.2109 9.3516-6.2227 14.965v43.062c-8.6328-4.832-17.078-9.9453-25.336-15.34v-53.711l44.988-30.562 47.098 31.992v98.074c-8.2422-2.957-16.375-6.1406-24.398-9.5469v-63.969c-0.003906-5.6094-2.2344-10.988-6.1992-14.957-3.9648-3.9648-9.3438-6.1992-14.953-6.207zm-185.96-95.379h0.25391v-127.21l44.871-30.484 47.461 32.242 0.66797-0.98438v146.38h-80.566c-4.4102-6.5156-8.6172-13.176-12.688-19.934zm130.92-537.74v558.36h-29.156v-558.36zm8.5078 232.46 44.988-30.543 47.098 31.973v167.86l-47.098-31.996-44.988 30.562zm44.988 147.58 47.098 31.996v145.64h-92.086v-147.07zm47.098-156.44-47.098-31.973-44.988 30.543v-52.691h92.086zm-92.086 342.58h92.086v53.254l-47.098-31.996-44.988 30.562zm92.086-405.21h-92.086v-30.484l92.086-116.89zm-231.26 187.52h93v53.953l-48.129-32.695-44.871 30.484zm93-8.5078h-93v-32.875l93-118.04zm8.5078 313.77v-86.887h29.156v109.54c-10.426-7.1289-20.52-14.68-30.289-22.656zm138.26-87.574h55.477v179.27c-18.793-3.707-37.324-8.6406-55.477-14.758zm63.984-396.7h154.76v170.51h-33.234v-90.645c-0.074218-15.855-8.5742-30.477-22.32-38.383-13.742-7.9062-30.656-7.9062-44.398 0-13.746 7.9062-22.246 22.527-22.32 38.383v90.645h-32.484zm113.02-8.5078h-72.023v-89.168c0-12.863 6.8633-24.754 18.004-31.188 11.145-6.4336 24.871-6.4336 36.016 0 11.141 6.4336 18.004 18.324 18.004 31.188zm-72.023 177.54v-89.168c0-12.863 6.8633-24.754 18.008-31.188 11.141-6.4336 24.867-6.4336 36.012 0 11.141 6.4336 18.004 18.324 18.004 31.188v89.168zm-40.992 9.9844h154.76v86.105c-22.188-17.004-49.336-26.262-77.285-26.363-27.953-0.097657-55.164 8.9688-77.473 25.812zm154.76-187.52h-33.234v-89.168c-0.074218-15.855-8.5742-30.477-22.32-38.383-13.742-7.9062-30.656-7.9062-44.398 0-13.746 7.9062-22.246 22.527-22.32 38.383v89.168h-32.484v-200.98h154.76zm8.5078 405.21h55.477v164.5c-18.152 6.1211-36.684 11.051-55.477 14.762zm193.73-566.18v557.67h-29.156v-557.67zm8.5078 348.49h93v51.742l-44.871-30.484-48.129 32.695zm93-8.5078h-93v-150.91l93 118.04zm-231.26-106.1 47.098-31.973 44.988 30.543v167.86l-44.988-30.562-47.098 31.996zm0 178.15 47.098-31.996 44.988 30.562v147.07h-92.086zm92.086-189.87-44.988-30.543-47.098 31.973v-54.117h92.086zm-92.086 344.02h92.086v51.82l-44.988-30.562-47.098 31.996zm92.086-405.21h-92.086v-147.38l92.086 116.89zm8.5078 405.21h29.156v88.465c-9.418 7.6328-19.137 14.887-29.156 21.766zm37.664-154.88 0.66797 0.98438 47.461-32.242 44.871 30.484v127.65c-3.9883 6.6055-8.1328 13.105-12.434 19.492h-80.566zm108.68-303.62v89.852h-15.68v95.836l-93-118.04v-183.84h-18.844v-36.277c53.383 40.637 96.965 92.738 127.52 152.46zm-136.03-158.88v42.695h-18.82v125.25l-92.086-116.89v-109.77c39.57 14.203 76.914 33.973 110.91 58.711zm-151.41-128.02v344.45h8.5078v-344.45h23.484v736.9h-23.484v-137.19h-8.5078v137.19h-23.484v-736.9zm-31.992 50.102v36.992l-32.637-41.426c10.895 1.0859 21.809 2.5312 32.637 4.4336zm0 50.734v29.879l-154.76-0.003906v-29.875l77.379-98.215zm-122.14-55.148-32.621 41.406v-36.992c10.828-1.8945 21.73-3.3242 32.621-4.4141zm-73.121-45.688v344.45h8.5078v-344.45h23.484v736.9h-23.484v-137.19h-8.5078v137.19h-23.484v-736.9zm-31.992 69.301v109.78l-92.086 116.89v-125.25h-18.82v-42.691c33.992-24.742 71.336-44.516 110.91-58.727zm-246.94 217.58c30.562-59.719 74.141-111.81 127.52-152.44v36.281h-18.844v183.84l-93 118.04v-95.84h-15.68zm-47.672 201.31v-102.93h23.156v138.2h8.5078v-138.2h23.18v317.36c-8.7148-15.812-16.457-32.148-23.18-48.906v-54.012h-8.5078v31.016c-15.602-45.902-23.559-94.051-23.555-142.53zm81.84 257.21h74.512v81.352c-28.09-23.949-53.117-51.27-74.512-81.352zm326.25 186.05v-215.5c0-12.863 6.8633-24.754 18.008-31.188 11.141-6.4336 24.867-6.4336 36.012 0 11.141 6.4336 18.004 18.324 18.004 31.188v215.56c-11.77 0.9375-23.629 1.5547-35.637 1.5547-12.262 0-24.371-0.63281-36.387-1.6133zm324.52-104.7v-81.348h74.512c-21.395 30.082-46.422 57.402-74.512 81.352z"/>
 </g>
</svg>
