<?xml version="1.0" encoding="UTF-8"?>
<svg xmlns="http://www.w3.org/2000/svg" viewBox="0 0 1200 1200">
  <defs>
    <clipPath id="aboveHill">
      <path d="M 0 0 L 1200 0 L 1200 880 Q 600 660 0 880 Z"></path>
    </clipPath>
  </defs>
  <g clip-path="url(#aboveHill)">
    <g transform="translate(255 180) scale(3)" opacity="0.14">
      <path d="M174.276,218.293l-13.415,2.241l-14.306,4.967l-9.421,1.646l-12.335-4.724l-2.349,3.806l-5.101-1.862l-5.642,8.233l4.886,5.992l4.724-0.378l20.757,10.986l2.915-0.486l6.155,2.538l3.401,5.074L165.126,258l6.235-8.26l-5.425-8.476l2.618-11.58L174.276,218.293z M53.295,150.838l-5.912-4.291l-8.017,8.151l-13.064,5.264l4.912,8.071l0.783,32.715l3.293,4.13l4.778,1.971l4.454-8.449l9.42,1.808l1.674-10.365l1.566-13.55l-2.052-3.536l2.268-11.04L53.295,150.838z M216.547,153.106l-40.894-16.736l3.509-8.88l-3.482-3.617l-16.654,1.619l-19.678-13.955l-10.77-23.322l-24.024-17.95l-2.51-10.069l2.078-4.237l-1.7-9.34l21.702-16.843l0.054-0.513l-4.616-12.012l5.021-6.073L103.42,8.262l-5.965-5.911L80.341,2l-2.645,4.805l-9.474-2.214l0.108,8.044l-4.562-1.943l-5.048,6.505l-14.468,6.505l-2.888,7.342l-8.449-10.743l-10.257,7.801l-5.426-1.215L4.06,30.558l5.101,14.496l-7.018,8.205l5.453,5.615l-3.59,4.076l3.185,7.801l11.85,4.076l0.027,7.585l8.017-3.671l9.177-11.094l10.905,0.728l18.922,13.416l0.675,5.992l7.538,17.873l45.908,40l13.334-0.945l5.507,7.342l9.366,7.369l5.318-1.673l5.237,6.748l-1.431,4.049l8.8,5.425l5.83-1.511l13.55,30.448l-7.018,4.372l1.674,3.806l-5.021,10.906l3.05,4.021l6.56-1.106l1.187-5.021l7.423-8.854l-1.241-6.451l6.559-5.803l4.265,0.405l-0.081-12.957l-11.718-7.866l7.021-20.126l9.475,4.616l4.912-0.216l6.937,9.07l6.101,2.321l2.051-8.368L216.547,153.106z" fill="#0a0a0a"></path>
    </g>
  </g>
  
  <g fill="none" stroke="#0a0a0a" stroke-width="22" stroke-linecap="square" stroke-linejoin="miter">
    <path d="M 80 880 Q 600 660 1120 880"></path>
    <line x1="500" y1="720" x2="500" y2="540"></line>
    <line x1="700" y1="720" x2="700" y2="540"></line>
    <path d="M 470 540 L 600 420 L 730 540"></path>
    <line x1="580" y1="720" x2="580" y2="640"></line>
    <line x1="620" y1="720" x2="620" y2="640"></line>
    <path d="M 580 640 A 20 20 0 0 1 620 640"></path>
    <line x1="600" y1="370" x2="600" y2="420"></line>
    <line x1="582" y1="385" x2="618" y2="385"></line>
    <path d="M 360 760 Q 338 620 360 560 Q 382 620 360 760" fill="#0a0a0a" stroke="none"></path>
    <path d="M 840 760 Q 818 620 840 560 Q 862 620 840 760" fill="#0a0a0a" stroke="none"></path>
  </g>
</svg>